<svg width="493" height="150" viewBox="0 0 493 150" fill="none" xmlns="http://www.w3.org/2000/svg">
<path d="M142 112.931L69.6606 150V75.8619L142 38.793V112.931Z" fill="#F97316" fill-opacity="0.55"/>
<path d="M69.6606 0V72.4138L142 36.2069L69.6606 0Z" fill="#F97316" fill-opacity="0.15"/>
<path d="M0 38.793L69.6603 75.8619V150L0 112.931V38.793Z" fill="#F97316"/>
<path d="M201.812 75.042C203.836 76.098 205.42 77.572 206.564 79.464C207.708 81.312 208.28 83.424 208.28 85.8C208.28 89.584 206.938 92.73 204.254 95.238C201.57 97.746 198.292 99 194.42 99H174.62V52.8H192.968C196.752 52.8 199.942 54.032 202.538 56.496C205.178 58.96 206.498 61.996 206.498 65.604C206.498 69.564 204.936 72.71 201.812 75.042ZM192.968 59.928H182.21V72.072H192.968C194.64 72.072 196.048 71.5 197.192 70.356C198.336 69.168 198.908 67.716 198.908 66C198.908 64.284 198.336 62.854 197.192 61.71C196.048 60.522 194.64 59.928 192.968 59.928ZM182.21 91.872H194.42C196.18 91.872 197.654 91.256 198.842 90.024C200.074 88.748 200.69 87.208 200.69 85.404C200.69 83.6 200.074 82.082 198.842 80.85C197.654 79.574 196.18 78.936 194.42 78.936H182.21V91.872ZM238.919 70.686V66H246.047V99H238.919V94.248C236.235 97.988 232.385 99.858 227.369 99.858C222.837 99.858 218.965 98.186 215.753 94.842C212.541 91.498 210.935 87.384 210.935 82.5C210.935 77.616 212.541 73.502 215.753 70.158C218.965 66.814 222.837 65.142 227.369 65.142C232.385 65.142 236.235 66.99 238.919 70.686ZM221.033 90.09C223.013 92.07 225.499 93.06 228.491 93.06C231.483 93.06 233.969 92.07 235.949 90.09C237.929 88.066 238.919 85.536 238.919 82.5C238.919 79.464 237.929 76.956 235.949 74.976C233.969 72.952 231.483 71.94 228.491 71.94C225.499 71.94 223.013 72.952 221.033 74.976C219.053 76.956 218.063 79.464 218.063 82.5C218.063 85.492 219.053 88.022 221.033 90.09ZM276.268 70.752L260.89 92.268H276.928V99H251.188V94.248L266.632 72.732H251.848V66H276.268V70.752ZM305.729 70.686V66H312.857V99H305.729V94.248C303.045 97.988 299.195 99.858 294.179 99.858C289.647 99.858 285.775 98.186 282.563 94.842C279.351 91.498 277.745 87.384 277.745 82.5C277.745 77.616 279.351 73.502 282.563 70.158C285.775 66.814 289.647 65.142 294.179 65.142C299.195 65.142 303.045 66.99 305.729 70.686ZM287.843 90.09C289.823 92.07 292.309 93.06 295.301 93.06C298.293 93.06 300.779 92.07 302.759 90.09C304.739 88.066 305.729 85.536 305.729 82.5C305.729 79.464 304.739 76.956 302.759 74.976C300.779 72.952 298.293 71.94 295.301 71.94C292.309 71.94 289.823 72.952 287.843 74.976C285.863 76.956 284.873 79.464 284.873 82.5C284.873 85.492 285.863 88.022 287.843 90.09ZM345.321 70.686V66H352.449V99H345.321V94.248C342.637 97.988 338.787 99.858 333.771 99.858C329.239 99.858 325.367 98.186 322.155 94.842C318.943 91.498 317.337 87.384 317.337 82.5C317.337 77.616 318.943 73.502 322.155 70.158C325.367 66.814 329.239 65.142 333.771 65.142C338.787 65.142 342.637 66.99 345.321 70.686ZM327.435 90.09C329.415 92.07 331.901 93.06 334.893 93.06C337.885 93.06 340.371 92.07 342.351 90.09C344.331 88.066 345.321 85.536 345.321 82.5C345.321 79.464 344.331 76.956 342.351 74.976C340.371 72.952 337.885 71.94 334.893 71.94C331.901 71.94 329.415 72.952 327.435 74.976C325.455 76.956 324.465 79.464 324.465 82.5C324.465 85.492 325.455 88.022 327.435 90.09ZM365.906 66V71.544C367.71 67.452 371.098 65.406 376.07 65.406V73.128C373.386 72.952 371.01 73.612 368.942 75.108C366.918 76.56 365.906 78.98 365.906 82.368V99H358.778V66H365.906ZM404.898 77.88V52.8H415.458V99H407.538L389.718 73.92V99H379.158V52.8H387.078L404.898 77.88ZM443.899 75.306L457.693 99H445.681L437.893 85.668L430.105 99H418.093L431.887 75.306L418.753 52.8H430.765L437.893 65.01L445.021 52.8H457.033L443.899 75.306ZM457.041 52.8H491.361V62.964H479.481V99H468.921V62.964H457.041V52.8Z" fill="black"/>
</svg>
